<?xml version="1.0" encoding="UTF-8" standalone="no"?>
<!DOCTYPE svg PUBLIC "-//W3C//DTD SVG 1.1//EN"
 "http://www.w3.org/Graphics/SVG/1.1/DTD/svg11.dtd">
<!-- Generated by graphviz version 2.40.1 (20161225.0304)
 -->
<!-- Title: architecture Pages: 1 -->
<svg width="747pt" height="264pt"
 viewBox="0.00 0.00 746.95 264.00" xmlns="http://www.w3.org/2000/svg" xmlns:xlink="http://www.w3.org/1999/xlink">
<g id="graph0" class="graph" transform="scale(1 1) rotate(0) translate(4 260)">
<title>architecture</title>
<polygon fill="#ffffff" stroke="transparent" points="-4,4 -4,-260 742.9453,-260 742.9453,4 -4,4"/>
<g id="clust1" class="cluster">
<title>cluster_spec</title>
<polygon fill="none" stroke="#000000" points="8,-132 8,-248 220,-248 220,-132 8,-132"/>
<text text-anchor="middle" x="114" y="-236" font-family="Times,serif" font-size="10.00" fill="#000000">adagio runs start &lt;graph_specification&gt;</text>
</g>
<g id="clust2" class="cluster">
<title>cluster_output_spec</title>
<polygon fill="none" stroke="#000000" points="8,-8 8,-124 220,-124 220,-8 8,-8"/>
<text text-anchor="middle" x="114" y="-112" font-family="Times,serif" font-size="10.00" fill="#000000">adagio runs inspect &#45;printer dot &lt;run_id&gt;</text>
</g>
<g id="clust3" class="cluster">
<title>cluster_etcd</title>
<polygon fill="none" stroke="#000000" points="419.8105,-33 419.8105,-157 616.8105,-157 616.8105,-33 419.8105,-33"/>
</g>
<!-- a -->
<g id="node1" class="node">
<title>a</title>
<ellipse fill="none" stroke="#000000" cx="27" cy="-206" rx="11" ry="11"/>
<text text-anchor="middle" x="27" y="-203" font-family="Times,serif" font-size="10.00" fill="#000000">a</text>
</g>
<!-- c -->
<g id="node2" class="node">
<title>c</title>
<ellipse fill="none" stroke="#000000" cx="85" cy="-211" rx="11" ry="11"/>
<text text-anchor="middle" x="85" y="-208" font-family="Times,serif" font-size="10.00" fill="#000000">c</text>
</g>
<!-- a&#45;&gt;c -->
<g id="edge1" class="edge">
<title>a&#45;&gt;c</title>
<path fill="none" stroke="#000000" d="M38.183,-206.9641C45.4044,-207.5866 55.0324,-208.4166 63.679,-209.162"/>
<polygon fill="#000000" stroke="#000000" points="63.5877,-212.667 73.8513,-210.0389 64.1889,-205.6929 63.5877,-212.667"/>
</g>
<!-- d -->
<g id="node3" class="node">
<title>d</title>
<ellipse fill="none" stroke="#000000" cx="85" cy="-171" rx="11" ry="11"/>
<text text-anchor="middle" x="85" y="-168" font-family="Times,serif" font-size="10.00" fill="#000000">d</text>
</g>
<!-- a&#45;&gt;d -->
<g id="edge2" class="edge">
<title>a&#45;&gt;d</title>
<path fill="none" stroke="#000000" d="M36.5775,-200.2205C44.6726,-195.3355 56.5044,-188.1956 66.4458,-182.1965"/>
<polygon fill="#000000" stroke="#000000" points="68.4608,-185.0685 75.2144,-176.9051 64.8442,-179.0751 68.4608,-185.0685"/>
</g>
<!-- e -->
<g id="node6" class="node">
<title>e</title>
<ellipse fill="none" stroke="#000000" cx="143" cy="-191" rx="11" ry="11"/>
<text text-anchor="middle" x="143" y="-188" font-family="Times,serif" font-size="10.00" fill="#000000">e</text>
</g>
<!-- c&#45;&gt;e -->
<g id="edge5" class="edge">
<title>c&#45;&gt;e</title>
<path fill="none" stroke="#000000" d="M95.6381,-207.3317C103.2416,-204.7098 113.706,-201.1014 122.8651,-197.9431"/>
<polygon fill="#000000" stroke="#000000" points="124.1166,-201.2138 132.4293,-194.6451 121.8346,-194.5962 124.1166,-201.2138"/>
</g>
<!-- d&#45;&gt;e -->
<g id="edge6" class="edge">
<title>d&#45;&gt;e</title>
<path fill="none" stroke="#000000" d="M95.6381,-174.6683C103.2416,-177.2902 113.706,-180.8986 122.8651,-184.0569"/>
<polygon fill="#000000" stroke="#000000" points="121.8346,-187.4038 132.4293,-187.3549 124.1166,-180.7862 121.8346,-187.4038"/>
</g>
<!-- b -->
<g id="node4" class="node">
<title>b</title>
<ellipse fill="none" stroke="#000000" cx="27" cy="-161" rx="11" ry="11"/>
<text text-anchor="middle" x="27" y="-158" font-family="Times,serif" font-size="10.00" fill="#000000">b</text>
</g>
<!-- b&#45;&gt;d -->
<g id="edge3" class="edge">
<title>b&#45;&gt;d</title>
<path fill="none" stroke="#000000" d="M37.9094,-162.8809C45.2814,-164.152 55.2504,-165.8708 64.1179,-167.3996"/>
<polygon fill="#000000" stroke="#000000" points="63.6903,-170.8775 74.1396,-169.1275 64.8797,-163.9792 63.6903,-170.8775"/>
</g>
<!-- f -->
<g id="node5" class="node">
<title>f</title>
<ellipse fill="none" stroke="#000000" cx="143" cy="-151" rx="11" ry="11"/>
<text text-anchor="middle" x="143" y="-148" font-family="Times,serif" font-size="10.00" fill="#000000">f</text>
</g>
<!-- b&#45;&gt;f -->
<g id="edge4" class="edge">
<title>b&#45;&gt;f</title>
<path fill="none" stroke="#000000" d="M37.7243,-158.0467C47.1844,-155.6034 61.3892,-152.3267 74,-151 89.8225,-149.3354 107.7991,-149.398 121.4361,-149.8437"/>
<polygon fill="#000000" stroke="#000000" points="121.589,-153.3531 131.7279,-150.2786 121.8846,-146.3594 121.589,-153.3531"/>
</g>
<!-- g -->
<g id="node7" class="node">
<title>g</title>
<ellipse fill="none" stroke="#000000" cx="201" cy="-151" rx="11" ry="11"/>
<text text-anchor="middle" x="201" y="-148" font-family="Times,serif" font-size="10.00" fill="#000000">g</text>
</g>
<!-- f&#45;&gt;g -->
<g id="edge8" class="edge">
<title>f&#45;&gt;g</title>
<path fill="none" stroke="#000000" d="M154.183,-151C161.4044,-151 171.0324,-151 179.679,-151"/>
<polygon fill="#000000" stroke="#000000" points="179.8514,-154.5001 189.8513,-151 179.8513,-147.5001 179.8514,-154.5001"/>
</g>
<!-- e&#45;&gt;g -->
<g id="edge7" class="edge">
<title>e&#45;&gt;g</title>
<path fill="none" stroke="#000000" d="M152.0625,-184.75C160.4408,-178.9719 173.1222,-170.2261 183.4764,-163.0853"/>
<polygon fill="#000000" stroke="#000000" points="185.5647,-165.8967 191.8097,-157.3381 181.5905,-160.1342 185.5647,-165.8967"/>
</g>
<!-- gateway -->
<g id="node20" class="node">
<title>gateway</title>
<polygon fill="none" stroke="#000000" points="274.8347,-188 248.055,-188 248.055,-44 274.8347,-44 274.8347,-188"/>
<text text-anchor="middle" x="261.4448" y="-111.8" font-family="Times,serif" font-size="14.00" fill="#000000">lb</text>
</g>
<!-- g&#45;&gt;gateway -->
<g id="edge25" class="edge">
<title>g&#45;&gt;gateway</title>
<path fill="none" stroke="#000000" d="M219.9968,-140.0001C225.9854,-136.5324 232.6595,-132.6679 238.872,-129.0706"/>
<polygon fill="#000000" stroke="#000000" points="240.8029,-131.997 247.703,-123.9571 237.2952,-125.9392 240.8029,-131.997"/>
</g>
<!-- a2 -->
<g id="node8" class="node">
<title>a2</title>
<ellipse fill="#00ff00" stroke="#000000" cx="27" cy="-82" rx="11" ry="11"/>
<text text-anchor="middle" x="27" y="-79" font-family="Times,serif" font-size="10.00" fill="#000000">a</text>
</g>
<!-- c2 -->
<g id="node10" class="node">
<title>c2</title>
<ellipse fill="#00ff00" stroke="#000000" cx="85" cy="-87" rx="11" ry="11"/>
<text text-anchor="middle" x="85" y="-84" font-family="Times,serif" font-size="10.00" fill="#000000">c</text>
</g>
<!-- a2&#45;&gt;c2 -->
<g id="edge9" class="edge">
<title>a2&#45;&gt;c2</title>
<path fill="none" stroke="#000000" d="M38.183,-82.9641C45.4044,-83.5866 55.0324,-84.4166 63.679,-85.162"/>
<polygon fill="#000000" stroke="#000000" points="63.5877,-88.667 73.8513,-86.0389 64.1889,-81.6929 63.5877,-88.667"/>
</g>
<!-- d2 -->
<g id="node11" class="node">
<title>d2</title>
<ellipse fill="#ff0000" stroke="#000000" cx="85" cy="-47" rx="11" ry="11"/>
<text text-anchor="middle" x="85" y="-44" font-family="Times,serif" font-size="10.00" fill="#000000">d</text>
</g>
<!-- a2&#45;&gt;d2 -->
<g id="edge10" class="edge">
<title>a2&#45;&gt;d2</title>
<path fill="none" stroke="#000000" d="M36.5775,-76.2205C44.6726,-71.3355 56.5044,-64.1956 66.4458,-58.1965"/>
<polygon fill="#000000" stroke="#000000" points="68.4608,-61.0685 75.2144,-52.9051 64.8442,-55.0751 68.4608,-61.0685"/>
</g>
<!-- b2 -->
<g id="node9" class="node">
<title>b2</title>
<ellipse fill="#00ff00" stroke="#000000" cx="27" cy="-37" rx="11" ry="11"/>
<text text-anchor="middle" x="27" y="-34" font-family="Times,serif" font-size="10.00" fill="#000000">b</text>
</g>
<!-- b2&#45;&gt;d2 -->
<g id="edge11" class="edge">
<title>b2&#45;&gt;d2</title>
<path fill="none" stroke="#000000" d="M37.9094,-38.8809C45.2814,-40.152 55.2504,-41.8708 64.1179,-43.3996"/>
<polygon fill="#000000" stroke="#000000" points="63.6903,-46.8775 74.1396,-45.1275 64.8797,-39.9792 63.6903,-46.8775"/>
</g>
<!-- f2 -->
<g id="node13" class="node">
<title>f2</title>
<ellipse fill="#00ff00" stroke="#000000" cx="143" cy="-37" rx="11" ry="11"/>
<text text-anchor="middle" x="143" y="-34" font-family="Times,serif" font-size="10.00" fill="#000000">f</text>
</g>
<!-- b2&#45;&gt;f2 -->
<g id="edge12" class="edge">
<title>b2&#45;&gt;f2</title>
<path fill="none" stroke="#000000" d="M37.7243,-34.0467C47.1844,-31.6034 61.3892,-28.3267 74,-27 83.7241,-25.977 86.2759,-25.977 96,-27 104.7685,-27.9225 114.3075,-29.7877 122.4865,-31.66"/>
<polygon fill="#000000" stroke="#000000" points="121.7313,-35.0783 132.2757,-34.0467 123.3894,-28.2775 121.7313,-35.0783"/>
</g>
<!-- e2 -->
<g id="node12" class="node">
<title>e2</title>
<ellipse fill="none" stroke="#000000" cx="143" cy="-82" rx="11" ry="11"/>
<text text-anchor="middle" x="143" y="-79" font-family="Times,serif" font-size="10.00" fill="#000000">e</text>
</g>
<!-- c2&#45;&gt;e2 -->
<g id="edge13" class="edge">
<title>c2&#45;&gt;e2</title>
<path fill="none" stroke="#000000" d="M96.183,-86.0359C103.4044,-85.4134 113.0324,-84.5834 121.679,-83.838"/>
<polygon fill="#000000" stroke="#000000" points="122.1889,-87.3071 131.8513,-82.9611 121.5877,-80.333 122.1889,-87.3071"/>
</g>
<!-- d2&#45;&gt;e2 -->
<g id="edge14" class="edge">
<title>d2&#45;&gt;e2</title>
<path fill="none" stroke="#000000" d="M94.5775,-52.7795C102.6726,-57.6645 114.5044,-64.8044 124.4458,-70.8035"/>
<polygon fill="#000000" stroke="#000000" points="122.8442,-73.9249 133.2144,-76.0949 126.4608,-67.9315 122.8442,-73.9249"/>
</g>
<!-- g2 -->
<g id="node14" class="node">
<title>g2</title>
<ellipse fill="none" stroke="#000000" cx="201" cy="-82" rx="11" ry="11"/>
<text text-anchor="middle" x="201" y="-79" font-family="Times,serif" font-size="10.00" fill="#000000">g</text>
</g>
<!-- e2&#45;&gt;g2 -->
<g id="edge15" class="edge">
<title>e2&#45;&gt;g2</title>
<path fill="none" stroke="#000000" d="M154.183,-82C161.4044,-82 171.0324,-82 179.679,-82"/>
<polygon fill="#000000" stroke="#000000" points="179.8514,-85.5001 189.8513,-82 179.8513,-78.5001 179.8514,-85.5001"/>
</g>
<!-- f2&#45;&gt;g2 -->
<g id="edge16" class="edge">
<title>f2&#45;&gt;g2</title>
<path fill="none" stroke="#000000" d="M152.0625,-44.0313C160.625,-50.6745 173.6819,-60.8049 184.1558,-68.9312"/>
<polygon fill="#000000" stroke="#000000" points="182.1447,-71.8008 192.191,-75.1655 186.4357,-66.2702 182.1447,-71.8008"/>
</g>
<!-- g2&#45;&gt;gateway -->
<g id="edge26" class="edge">
<title>g2&#45;&gt;gateway</title>
<path fill="none" stroke="#000000" d="M228.7519,-97.6103C235.3312,-101.3112 242.0677,-105.1004 247.703,-108.2703"/>
<polygon fill="#000000" stroke="#000000" points="230.4275,-94.5372 219.9957,-92.685 226.9956,-100.6382 230.4275,-94.5372"/>
</g>
<!-- etcd0 -->
<g id="node15" class="node">
<title>etcd0</title>
<path fill="#d3d3d3" stroke="#000000" d="M481.8105,-145.7273C481.8105,-147.5331 469.7087,-149 454.8105,-149 439.9124,-149 427.8105,-147.5331 427.8105,-145.7273 427.8105,-145.7273 427.8105,-116.2727 427.8105,-116.2727 427.8105,-114.4669 439.9124,-113 454.8105,-113 469.7087,-113 481.8105,-114.4669 481.8105,-116.2727 481.8105,-116.2727 481.8105,-145.7273 481.8105,-145.7273"/>
<path fill="none" stroke="#000000" d="M481.8105,-145.7273C481.8105,-143.9214 469.7087,-142.4545 454.8105,-142.4545 439.9124,-142.4545 427.8105,-143.9214 427.8105,-145.7273"/>
<text text-anchor="middle" x="454.8105" y="-126.8" font-family="Times,serif" font-size="14.00" fill="#000000">etcd0</text>
</g>
<!-- etcd1 -->
<g id="node16" class="node">
<title>etcd1</title>
<path fill="#d3d3d3" stroke="#000000" d="M608.8105,-145.7273C608.8105,-147.5331 596.7087,-149 581.8105,-149 566.9124,-149 554.8105,-147.5331 554.8105,-145.7273 554.8105,-145.7273 554.8105,-116.2727 554.8105,-116.2727 554.8105,-114.4669 566.9124,-113 581.8105,-113 596.7087,-113 608.8105,-114.4669 608.8105,-116.2727 608.8105,-116.2727 608.8105,-145.7273 608.8105,-145.7273"/>
<path fill="none" stroke="#000000" d="M608.8105,-145.7273C608.8105,-143.9214 596.7087,-142.4545 581.8105,-142.4545 566.9124,-142.4545 554.8105,-143.9214 554.8105,-145.7273"/>
<text text-anchor="middle" x="581.8105" y="-126.8" font-family="Times,serif" font-size="14.00" fill="#000000">etcd1</text>
</g>
<!-- etcd0&#45;&gt;etcd1 -->
<g id="edge17" class="edge">
<title>etcd0&#45;&gt;etcd1</title>
<path fill="none" stroke="#000000" d="M492.0907,-131C508.5218,-131 527.7941,-131 544.2566,-131"/>
<polygon fill="#000000" stroke="#000000" points="492.0553,-127.5001 482.0552,-131 492.0552,-134.5001 492.0553,-127.5001"/>
<polygon fill="#000000" stroke="#000000" points="544.611,-134.5001 554.6109,-131 544.6109,-127.5001 544.611,-134.5001"/>
</g>
<!-- etcd2 -->
<g id="node17" class="node">
<title>etcd2</title>
<path fill="#d3d3d3" stroke="#000000" d="M481.8105,-73.7273C481.8105,-75.5331 469.7087,-77 454.8105,-77 439.9124,-77 427.8105,-75.5331 427.8105,-73.7273 427.8105,-73.7273 427.8105,-44.2727 427.8105,-44.2727 427.8105,-42.4669 439.9124,-41 454.8105,-41 469.7087,-41 481.8105,-42.4669 481.8105,-44.2727 481.8105,-44.2727 481.8105,-73.7273 481.8105,-73.7273"/>
<path fill="none" stroke="#000000" d="M481.8105,-73.7273C481.8105,-71.9214 469.7087,-70.4545 454.8105,-70.4545 439.9124,-70.4545 427.8105,-71.9214 427.8105,-73.7273"/>
<text text-anchor="middle" x="454.8105" y="-54.8" font-family="Times,serif" font-size="14.00" fill="#000000">etcd2</text>
</g>
<!-- etcd0&#45;&gt;etcd2 -->
<g id="edge18" class="edge">
<title>etcd0&#45;&gt;etcd2</title>
<path fill="none" stroke="#000000" d="M454.8105,-102.9384C454.8105,-97.7303 454.8105,-92.5222 454.8105,-87.3142"/>
<polygon fill="#000000" stroke="#000000" points="451.3106,-102.9538 454.8105,-112.9539 458.3106,-102.9539 451.3106,-102.9538"/>
<polygon fill="#000000" stroke="#000000" points="458.3106,-87.2812 454.8105,-77.2813 451.3106,-87.2813 458.3106,-87.2812"/>
</g>
<!-- etcd1&#45;&gt;etcd2 -->
<g id="edge19" class="edge">
<title>etcd1&#45;&gt;etcd2</title>
<path fill="none" stroke="#000000" d="M545.4897,-110.4086C528.3975,-100.7186 508.067,-89.1926 490.9924,-79.5126"/>
<polygon fill="#000000" stroke="#000000" points="544.1855,-113.6926 554.6109,-115.5797 547.6378,-107.6031 544.1855,-113.6926"/>
<polygon fill="#000000" stroke="#000000" points="492.4807,-76.333 482.0552,-74.4458 489.0283,-82.4224 492.4807,-76.333"/>
</g>
<!-- agent0 -->
<g id="node21" class="node">
<title>agent0</title>
<polygon fill="none" stroke="#000000" points="739.0128,-203 644.7431,-203 644.7431,-167 739.0128,-167 739.0128,-203"/>
<text text-anchor="middle" x="691.8779" y="-180.8" font-family="Times,serif" font-size="14.00" fill="#000000">adagiod agent</text>
</g>
<!-- etcd1&#45;&gt;agent0 -->
<g id="edge22" class="edge">
<title>etcd1&#45;&gt;agent0</title>
<path fill="none" stroke="#000000" d="M618.1788,-148.8426C630.0117,-154.6479 643.1506,-161.0939 655.019,-166.9167"/>
<polygon fill="#000000" stroke="#000000" points="619.5376,-145.6107 609.0182,-144.3483 616.4544,-151.8951 619.5376,-145.6107"/>
</g>
<!-- agent1 -->
<g id="node22" class="node">
<title>agent1</title>
<polygon fill="none" stroke="#000000" points="739.0128,-149 644.7431,-149 644.7431,-113 739.0128,-113 739.0128,-149"/>
<text text-anchor="middle" x="691.8779" y="-126.8" font-family="Times,serif" font-size="14.00" fill="#000000">adagiod agent</text>
</g>
<!-- etcd1&#45;&gt;agent1 -->
<g id="edge23" class="edge">
<title>etcd1&#45;&gt;agent1</title>
<path fill="none" stroke="#000000" d="M619.2561,-131C627.3436,-131 635.9975,-131 644.4108,-131"/>
<polygon fill="#000000" stroke="#000000" points="619.0183,-127.5001 609.0182,-131 619.0182,-134.5001 619.0183,-127.5001"/>
</g>
<!-- agent2 -->
<g id="node23" class="node">
<title>agent2</title>
<polygon fill="none" stroke="#000000" points="739.0128,-95 644.7431,-95 644.7431,-59 739.0128,-59 739.0128,-95"/>
<text text-anchor="middle" x="691.8779" y="-72.8" font-family="Times,serif" font-size="14.00" fill="#000000">adagiod agent</text>
</g>
<!-- etcd1&#45;&gt;agent2 -->
<g id="edge24" class="edge">
<title>etcd1&#45;&gt;agent2</title>
<path fill="none" stroke="#000000" d="M618.1788,-113.1574C630.0117,-107.3521 643.1506,-100.9061 655.019,-95.0833"/>
<polygon fill="#000000" stroke="#000000" points="616.4544,-110.1049 609.0182,-117.6517 619.5376,-116.3893 616.4544,-110.1049"/>
</g>
<!-- api0 -->
<g id="node18" class="node">
<title>api0</title>
<polygon fill="none" stroke="#000000" points="391.771,-173 310.9292,-173 310.9292,-137 391.771,-137 391.771,-173"/>
<text text-anchor="middle" x="351.3501" y="-150.8" font-family="Times,serif" font-size="14.00" fill="#000000">adagiod api</text>
</g>
<!-- api0&#45;&gt;etcd0 -->
<g id="edge20" class="edge">
<title>api0&#45;&gt;etcd0</title>
<path fill="none" stroke="#000000" d="M391.9435,-145.5834C400.4759,-143.6042 409.4326,-141.5264 417.8245,-139.5798"/>
<polygon fill="#000000" stroke="#000000" points="418.7637,-142.9549 427.7141,-137.2856 417.1819,-136.136 418.7637,-142.9549"/>
</g>
<!-- api1 -->
<g id="node19" class="node">
<title>api1</title>
<polygon fill="none" stroke="#000000" points="391.771,-119 310.9292,-119 310.9292,-83 391.771,-83 391.771,-119"/>
<text text-anchor="middle" x="351.3501" y="-96.8" font-family="Times,serif" font-size="14.00" fill="#000000">adagiod api</text>
</g>
<!-- api1&#45;&gt;etcd0 -->
<g id="edge21" class="edge">
<title>api1&#45;&gt;etcd0</title>
<path fill="none" stroke="#000000" d="M391.9435,-112.7707C400.5696,-115.272 409.6295,-117.899 418.101,-120.3555"/>
<polygon fill="#000000" stroke="#000000" points="417.135,-123.7195 427.7141,-123.143 419.0845,-116.9964 417.135,-123.7195"/>
</g>
<!-- gateway&#45;&gt;api0 -->
<g id="edge27" class="edge">
<title>gateway&#45;&gt;api0</title>
<path fill="none" stroke="#000000" d="M275.0995,-121.9233C282.3213,-125.056 291.6825,-129.1168 301.3592,-133.3145"/>
<polygon fill="#000000" stroke="#000000" points="300.107,-136.5863 310.6739,-137.3551 302.8928,-130.1645 300.107,-136.5863"/>
</g>
<!-- gateway&#45;&gt;api1 -->
<g id="edge28" class="edge">
<title>gateway&#45;&gt;api1</title>
<path fill="none" stroke="#000000" d="M275.0995,-113.7218C282.1724,-112.5418 291.2974,-111.0193 300.7611,-109.4404"/>
<polygon fill="#000000" stroke="#000000" points="301.3863,-112.8845 310.6739,-107.7865 300.2342,-105.98 301.3863,-112.8845"/>
</g>
</g>
</svg>
